# 3ds Max Wavefront OBJ Exporter v0.97b - (c)2007 guruware
# File Created: 29.09.2015 22:13:46

mtllib Pista.mtl

#
# object Box001
#

v  -135.0595 0.0000 47.4863
v  -135.0595 0.0000 -52.5137
v  164.9405 0.0000 -52.5137
v  164.9405 0.0000 47.4863
v  -135.1279 27.4375 36.7937
v  165.0125 27.4375 36.7937
v  165.0125 27.4375 -41.8212
v  -135.1279 27.4375 -41.8212
v  164.9405 16.8759 47.4863
v  -135.0595 16.8759 47.4863
v  164.9405 16.8759 -52.5137
v  -135.0595 16.8759 -52.5137
v  -135.0595 29.7146 47.6951
v  164.9405 29.7146 47.6951
v  164.9405 35.6555 37.0026
v  -135.0595 35.6555 37.0026
v  164.9405 22.8168 -41.8212
v  164.9405 22.8168 36.7937
v  164.9405 29.7146 -52.1965
v  -135.0595 29.7146 -52.1965
v  -135.0595 35.6555 -41.5040
v  164.9405 35.6555 -41.5040
v  -135.0595 22.8168 36.7937
v  -135.0595 22.8168 -41.8212
# 24 vertices

vn 0.0000 -1.0000 -0.0000
vn 0.0000 1.0000 -0.0000
vn 0.0000 0.0000 1.0000
vn 1.0000 0.0000 -0.0000
vn 0.0000 0.0000 -1.0000
vn -1.0000 0.0000 -0.0000
vn 0.0000 0.8741 0.4857
vn 0.0000 0.8741 -0.4857
vn 0.9999 -0.0156 -0.0000
vn -0.9999 -0.0148 -0.0000
vn 0.0000 -0.0163 0.9999
vn 0.0000 0.0163 -0.9999
vn 0.0000 0.0247 -0.9997
vn 0.0000 -0.0247 0.9997
# 14 vertex normals

vt 0.0291 0.2792 0.0000
vt 0.0291 0.4947 0.0000
vt 0.5006 0.4947 0.0000
vt 0.5006 0.2792 0.0000
vt 0.0306 0.0821 0.0000
vt 0.5006 0.0821 0.0000
vt 0.5006 0.2517 0.0000
vt 0.0306 0.2517 0.0000
vt 0.5921 0.8514 0.0000
vt 0.7944 0.8514 0.0000
vt 0.7944 0.8895 0.0000
vt 0.5921 0.8895 0.0000
vt 0.9429 0.5137 0.0000
vt 0.5208 0.5137 0.0000
vt 0.5208 0.7139 0.0000
vt 0.9429 0.7139 0.0000
vt 0.7368 0.4147 0.0000
vt 0.6038 0.4147 0.0000
vt 0.6047 0.4370 0.0000
vt 0.7377 0.4370 0.0000
vt 0.5337 0.0601 0.0000
vt 0.9558 0.0601 0.0000
vt 0.9558 0.2603 0.0000
vt 0.5337 0.2603 0.0000
vt 0.0307 0.0586 0.0000
vt 0.5005 0.0586 0.0000
vt 0.5005 0.0816 0.0000
vt 0.0307 0.0816 0.0000
vt 0.5659 0.7844 0.0000
vt 0.8977 0.7844 0.0000
vt 0.5005 0.2741 0.0000
vt 0.0307 0.2741 0.0000
vt 0.0307 0.2510 0.0000
vt 0.5005 0.2510 0.0000
vt 0.9106 0.3308 0.0000
vt 0.5788 0.3308 0.0000
vt 0.0435 0.6022 0.0000
vt 0.4664 0.6022 0.0000
vt 0.4664 0.5199 0.0000
vt 0.0435 0.5199 0.0000
vt 0.5659 0.8392 0.0000
vt 0.8977 0.8392 0.0000
vt 0.4683 0.8167 0.0000
vt 0.0454 0.8167 0.0000
vt 0.0416 0.8932 0.0000
vt 0.4645 0.8932 0.0000
vt 0.9106 0.3856 0.0000
vt 0.5788 0.3856 0.0000
vt 0.7944 0.9184 0.0000
vt 0.5921 0.9184 0.0000
vt 0.8986 0.9367 0.0000
vt 0.9437 0.8662 0.0000
vt 0.0435 0.7130 0.0000
vt 0.4664 0.7130 0.0000
vt 0.9567 0.4126 0.0000
vt 0.9115 0.4831 0.0000
vt 0.6045 0.4763 0.0000
vt 0.7376 0.4763 0.0000
vt 0.5802 0.4831 0.0000
vt 0.5351 0.4126 0.0000
vt 0.4664 0.7307 0.0000
vt 0.0435 0.7307 0.0000
vt 0.5221 0.8662 0.0000
vt 0.5673 0.9367 0.0000
# 64 texture coords

g Box001
usemtl Material__25
s 2
f 1/1/1 2/2/1 3/3/1 4/4/1 
s 4
f 5/5/2 6/6/2 7/7/2 8/8/2 
s 8
f 1/9/3 4/10/3 9/11/3 10/12/3 
s 16
f 4/13/4 3/14/4 11/15/4 9/16/4 
s 32
f 3/17/5 2/18/5 12/19/5 11/20/5 
s 64
f 2/21/6 1/22/6 10/23/6 12/24/6 
s off
f 13/25/7 14/26/7 15/27/7 16/28/7 
f 9/16/4 11/15/4 17/29/4 18/30/4 
f 19/31/8 20/32/8 21/33/8 22/34/8 
f 12/24/6 10/23/6 23/35/6 24/36/6 
f 23/37/3 18/38/3 6/39/3 5/40/3 
f 18/30/9 17/29/9 7/41/9 6/42/9 
f 17/43/5 24/44/5 8/45/5 7/46/5 
f 24/36/10 23/35/10 5/47/10 8/48/10 
f 10/12/11 9/11/11 14/49/11 13/50/11 
f 9/16/4 18/30/4 15/51/4 14/52/4 
f 18/38/12 23/37/12 16/53/12 15/54/12 
f 23/35/6 10/23/6 13/55/6 16/56/6 
f 11/20/13 12/19/13 20/57/13 19/58/13 
f 12/24/6 24/36/6 21/59/6 20/60/6 
f 24/44/14 17/43/14 22/61/14 21/62/14 
f 17/29/4 11/15/4 19/63/4 22/64/4 
# 22 polygons

